# xmcd
#
# Track frame offsets:
#  150
#  17470
#  28747
#  40546
#  47748
#  52686
#  58390
#  65191
#  70947
#  77731
#  81676
#  87955
#  111683
#  129543
#  145417
#  169267
#  184793
#  190253
#  194720
#  209636
#  234409
#  245250
#  269379
#  283616
#  296565
#  314721
#  319014
#  326668
#
# Disc length: 4710 seconds
#
# Revision: 0
# Processed by: cddbd v1.5.1PL2 Copyright (c) Steve Scherf et al.
# Submitted via: Collectorz.com_Music_Collector 6.9
#
DISCID=ba12641c
DTITLE=Bruce Springsteen - How Nebraska Was Born... - Disc 1
DYEAR=1982
DGENRE=Acoustic
TTITLE0=Fist Full Of Dollars #1
TTITLE1=Fist Full Of Dollars #2
TTITLE2=Bye Bye Johnny
TTITLE3=Riding Horse
TTITLE4=Party Lights
TTITLE5=Summer Nights
TTITLE6=My Heart Is An Open Book
TTITLE7=Robert Ford And Jesse James
TTITLE8=Danger Zone
TTITLE9=Daniel In The Lion's Den
TTITLE10=Open All Night (Early Version)
TTITLE11=Vietnam
TTITLE12=Johnny 99 #1
TTITLE13=Johnny 99 #2
TTITLE14=The Answer (Losin' Kind Acoustic Demo)
TTITLE15=Love Is A Dangerous Thing
TTITLE16=Downbound Train
TTITLE17=Red River Rock
TTITLE18=Used Cars #1
TTITLE19=Used Cars #2
TTITLE20=Born In The Usa #1
TTITLE21=Born In The Usa #2
TTITLE22=Born In The Usa #3
TTITLE23=Born In The Usa #4
TTITLE24=Born In The Usa #5
TTITLE25=Club Soul City
TTITLE26=Atlantic City
TTITLE27=Fade To Black #1
EXTD=
EXTT0=
EXTT1=
EXTT2=
EXTT3=
EXTT4=
EXTT5=
EXTT6=
EXTT7=
EXTT8=
EXTT9=
EXTT10=
EXTT11=
EXTT12=
EXTT13=
EXTT14=
EXTT15=
EXTT16=
EXTT17=
EXTT18=
EXTT19=
EXTT20=
EXTT21=
EXTT22=
EXTT23=
EXTT24=
EXTT25=
EXTT26=
EXTT27=
PLAYORDER=
